<svg width="176" height="41" viewBox="0 0 176 41" fill="none" xmlns="http://www.w3.org/2000/svg">
<path d="M171.5 1H4.5C2.567 1 1 2.567 1 4.5V36.5C1 38.433 2.567 40 4.5 40H171.5C173.433 40 175 38.433 175 36.5V4.5C175 2.567 173.433 1 171.5 1Z" fill="#FEE500" stroke="#747775"/>
<path d="M16.5 26.1328L16 30.9977L21 27.2139L16.5 26.1328Z" fill="#3C1E1E"/>
<path d="M22 28.2973C27.5228 28.2973 32 24.4252 32 19.6486C32 14.8721 27.5228 11 22 11C16.4772 11 12 14.8721 12 19.6486C12 24.4252 16.4772 28.2973 22 28.2973Z" fill="black"/>
<path d="M61.208 16.216H62.18C62.18 19.348 61.124 22.228 57.236 24.16L56.696 23.392C60.128 21.7 61.208 19.276 61.208 16.324V16.216ZM57.284 16.216H61.796V17.02H57.284V16.216ZM61.052 18.904V19.672L56.9 20.08L56.744 19.192L61.052 18.904ZM63.932 15.076H64.94V25.936H63.932V15.076ZM64.664 19.48H66.668V20.308H64.664V19.48ZM72.2471 16.216H73.2191C73.2191 19.348 72.1631 22.228 68.2751 24.16L67.7351 23.392C71.1671 21.7 72.2471 19.276 72.2471 16.324V16.216ZM68.3231 16.216H72.8351V17.02H68.3231V16.216ZM72.0911 18.904V19.672L67.9391 20.08L67.7831 19.192L72.0911 18.904ZM74.9711 15.076H75.9791V25.936H74.9711V15.076ZM75.7031 19.48H77.7071V20.308H75.7031V19.48ZM83.0701 21.22H84.0661V23.92H83.0701V21.22ZM83.5741 15.796C85.8661 15.796 87.5101 16.912 87.5101 18.64C87.5101 20.368 85.8661 21.484 83.5741 21.484C81.2821 21.484 79.6261 20.368 79.6261 18.64C79.6261 16.912 81.2821 15.796 83.5741 15.796ZM83.5741 16.588C81.8461 16.588 80.5861 17.404 80.5861 18.64C80.5861 19.876 81.8461 20.692 83.5741 20.692C85.2901 20.692 86.5501 19.876 86.5501 18.64C86.5501 17.404 85.2901 16.588 83.5741 16.588ZM78.6781 23.728H88.5061V24.556H78.6781V23.728ZM89.7172 23.776H99.5452V24.604H89.7172V23.776ZM94.1092 21.448H95.1052V24.124H94.1092V21.448ZM90.9052 15.892H98.3332V19.18H91.9252V21.352H90.9412V18.376H97.3492V16.696H90.9052V15.892ZM90.9412 20.932H98.5852V21.748H90.9412V20.932ZM106.987 16.024H107.803V17.968C107.803 20.464 106.459 22.78 104.683 23.68L104.071 22.864C105.679 22.096 106.987 20.02 106.987 17.968V16.024ZM107.155 16.024H107.971V17.968C107.971 19.948 109.267 21.94 110.875 22.684L110.275 23.476C108.511 22.612 107.155 20.38 107.155 17.968V16.024ZM112.003 15.076H112.999V25.948H112.003V15.076ZM117.834 16.204H118.65V17.08C118.65 19.072 117.45 20.728 115.638 21.376L115.11 20.596C116.754 20.02 117.834 18.628 117.834 17.08V16.204ZM118.014 16.204H118.83V17.068C118.83 18.508 119.874 19.84 121.47 20.38L120.954 21.16C119.166 20.536 118.014 18.94 118.014 17.068V16.204ZM115.422 15.844H121.218V16.66H115.422V15.844ZM122.586 15.088H123.582V21.616H122.586V15.088ZM123.306 17.944H125.19V18.772H123.306V17.944ZM116.538 22.192H123.582V25.936H122.586V23.02H116.538V22.192ZM133.553 15.088H134.549V25.936H133.553V15.088ZM134.309 19.54H136.325V20.38H134.309V19.54ZM126.149 16.816H132.545V17.632H126.149V16.816ZM129.389 18.532C130.925 18.532 132.029 19.564 132.029 21.028C132.029 22.492 130.925 23.524 129.389 23.524C127.865 23.524 126.749 22.492 126.749 21.028C126.749 19.564 127.865 18.532 129.389 18.532ZM129.389 19.36C128.405 19.36 127.697 20.044 127.697 21.028C127.697 22 128.405 22.696 129.389 22.696C130.373 22.696 131.081 22 131.081 21.028C131.081 20.044 130.373 19.36 129.389 19.36ZM128.873 15.22H129.869V17.188H128.873V15.22ZM145.144 15.088H146.14V25.936H145.144V15.088ZM141.964 16.252H142.948C142.948 19.396 141.532 22.144 137.908 23.92L137.38 23.116C140.512 21.604 141.964 19.3 141.964 16.42V16.252ZM137.872 16.252H142.396V17.068H137.872V16.252Z" fill="black"/>
</svg>
