<svg width="176" height="41" viewBox="0 0 176 41" fill="none" xmlns="http://www.w3.org/2000/svg">
<path d="M171.5 1H4.5C2.567 1 1 2.567 1 4.5V36.5C1 38.433 2.567 40 4.5 40H171.5C173.433 40 175 38.433 175 36.5V4.5C175 2.567 173.433 1 171.5 1Z" fill="#03C75A" stroke="#747775"/>
<path d="M25.18 30L18.74 19.6393V30H12V10H18.84L25.28 20.3388V10H32V30H25.18Z" fill="white"/>
<path d="M68.116 16.252H69.1V22.612H68.116V16.252ZM68.116 22.324H68.812C70.072 22.324 71.248 22.264 72.616 21.988L72.748 22.84C71.332 23.128 70.12 23.188 68.812 23.188H68.116V22.324ZM75.856 15.088H76.816V25.936H75.856V15.088ZM71.128 18.724H73.84V19.552H71.128V18.724ZM73.564 15.34H74.5V25.384H73.564V15.34ZM86.5111 15.076H87.5071V25.948H86.5111V15.076ZM81.7831 15.916C83.3911 15.916 84.5431 17.392 84.5431 19.696C84.5431 22.012 83.3911 23.488 81.7831 23.488C80.1871 23.488 79.0351 22.012 79.0351 19.696C79.0351 17.392 80.1871 15.916 81.7831 15.916ZM81.7831 16.816C80.7271 16.816 79.9831 17.944 79.9831 19.696C79.9831 21.46 80.7271 22.612 81.7831 22.612C82.8511 22.612 83.5831 21.46 83.5831 19.696C83.5831 17.944 82.8511 16.816 81.7831 16.816ZM97.6221 15.076H98.6061V25.948H97.6221V15.076ZM94.7541 19.108H97.9101V19.924H94.7541V19.108ZM90.1101 15.94H91.0941V18.76H94.1061V15.94H95.0901V23.224H90.1101V15.94ZM91.0941 19.552V22.396H94.1061V19.552H91.0941ZM104.092 23.776H113.92V24.604H104.092V23.776ZM108.484 21.448H109.48V24.124H108.484V21.448ZM105.28 15.892H112.708V19.18H106.3V21.352H105.316V18.376H111.724V16.696H105.28V15.892ZM105.316 20.932H112.96V21.748H105.316V20.932ZM116.187 16.24H123.171V17.044H116.187V16.24ZM115.131 23.524H124.935V24.352H115.131V23.524ZM122.643 16.24H123.615V17.32C123.615 18.712 123.615 20.26 123.207 22.6L122.211 22.504C122.643 20.284 122.643 18.664 122.643 17.32V16.24ZM134.054 15.1H135.062V23.02H134.054V15.1ZM128.09 24.88H135.386V25.696H128.09V24.88ZM128.09 22.204H129.074V25.156H128.09V22.204ZM129.242 15.844C130.862 15.844 132.062 16.948 132.062 18.52C132.062 20.08 130.862 21.196 129.242 21.196C127.622 21.196 126.41 20.08 126.41 18.52C126.41 16.948 127.622 15.844 129.242 15.844ZM129.242 16.708C128.186 16.708 127.382 17.452 127.382 18.52C127.382 19.576 128.186 20.32 129.242 20.32C130.298 20.32 131.102 19.576 131.102 18.52C131.102 17.452 130.298 16.708 129.242 16.708Z" fill="white"/>
</svg>
